<?xml version="1.0" encoding="UTF-8" standalone="no"?>
<!DOCTYPE svg PUBLIC "-//W3C//DTD SVG 1.1//EN" "http://www.w3.org/Graphics/SVG/1.1/DTD/svg11.dtd">
<svg width="100%" height="100%" viewBox="0 0 738 1548" version="1.1" xmlns="http://www.w3.org/2000/svg" xmlns:xlink="http://www.w3.org/1999/xlink" xml:space="preserve" xmlns:serif="http://www.serif.com/" style="fill-rule:evenodd;clip-rule:evenodd;stroke-linejoin:round;stroke-miterlimit:2;">
    <rect id="Artboard1" x="0" y="0" width="737.995" height="1547.15" style="fill:none;"/>
    <g id="Artboard11" serif:id="Artboard1">
        <g transform="matrix(4.16667,0,0,-4.16667,-147.85,1678.04)">
            <g id="Overlay-panel" serif:id="Overlay panel">
                <rect x="37.253" y="35.434" width="171.779" height="364.252" style="fill:rgb(123,96,71);"/>
            </g>
        </g>
        <g id="Holes" transform="matrix(4.16667,0,0,4.16667,0,0)">
            <g transform="matrix(0,-1,-1,0,152.591,6.30001)">
                <path d="M-4.528,-4.529C-7.033,-4.529 -9.064,-2.501 -9.064,0C-9.064,2.5 -7.033,4.528 -4.528,4.528C-2.023,4.528 0.007,2.5 0.007,0C0.007,-2.501 -2.023,-4.529 -4.528,-4.529" style="fill:white;fill-rule:nonzero;"/>
            </g>
            <g transform="matrix(0,-1,-1,0,152.592,353.544)">
                <path d="M-4.529,-4.529C-7.034,-4.529 -9.064,-2.501 -9.064,0C-9.064,2.5 -7.034,4.529 -4.529,4.529C-2.025,4.529 0.006,2.5 0.006,0C0.006,-2.501 -2.025,-4.529 -4.529,-4.529" style="fill:white;fill-rule:nonzero;"/>
            </g>
            <g transform="matrix(0,-1,-1,0,23.2052,353.544)">
                <path d="M-4.529,-4.529C-7.034,-4.529 -9.064,-2.502 -9.064,-0.001C-9.064,2.5 -7.034,4.529 -4.529,4.529C-2.025,4.529 0.006,2.5 0.006,-0.001C0.006,-2.502 -2.025,-4.529 -4.529,-4.529" style="fill:white;fill-rule:nonzero;"/>
            </g>
            <g transform="matrix(0,-1,-1,0,23.2047,6.30001)">
                <path d="M-4.528,-4.529C-7.033,-4.529 -9.064,-2.502 -9.064,-0.001C-9.064,2.5 -7.033,4.528 -4.528,4.528C-2.023,4.528 0.007,2.5 0.007,-0.001C0.007,-2.502 -2.023,-4.529 -4.528,-4.529" style="fill:white;fill-rule:nonzero;"/>
            </g>
            <g transform="matrix(1.2326e-32,-1.33332,-1.33332,1.54074e-32,25.5364,56.295)">
                <path d="M-8.504,-8.504C-13.201,-8.504 -17.008,-4.696 -17.008,0C-17.008,4.696 -13.201,8.504 -8.504,8.504C-3.808,8.504 0,4.696 0,0C0,-4.696 -3.808,-8.504 -8.504,-8.504" style="fill:white;fill-rule:nonzero;"/>
            </g>
            <g transform="matrix(0,-1.33332,-1.33332,0,87.8987,56.2955)">
                <path d="M-8.504,-8.504C-13.201,-8.504 -17.008,-4.696 -17.008,0C-17.008,4.696 -13.201,8.504 -8.504,8.504C-3.808,8.504 0,4.696 0,0C0,-4.696 -3.808,-8.504 -8.504,-8.504" style="fill:white;fill-rule:nonzero;"/>
            </g>
            <g transform="matrix(0,-1.33332,-1.33332,0,150.261,56.2955)">
                <path d="M-8.504,-8.504C-13.201,-8.504 -17.008,-4.696 -17.008,0C-17.008,4.696 -13.201,8.504 -8.504,8.504C-3.808,8.504 0,4.696 0,0C0,-4.696 -3.808,-8.504 -8.504,-8.504" style="fill:white;fill-rule:nonzero;"/>
            </g>
            <g transform="matrix(0,-1.33332,-1.33332,0,25.5364,118.658)">
                <path d="M-8.504,-8.504C-13.201,-8.504 -17.008,-4.696 -17.008,0C-17.008,4.696 -13.201,8.504 -8.504,8.504C-3.808,8.504 0,4.696 0,0C0,-4.696 -3.808,-8.504 -8.504,-8.504" style="fill:white;fill-rule:nonzero;"/>
            </g>
            <g transform="matrix(0,-1.33332,-1.33332,0,87.8987,118.658)">
                <path d="M-8.504,-8.504C-13.201,-8.504 -17.008,-4.696 -17.008,0C-17.008,4.696 -13.201,8.504 -8.504,8.504C-3.808,8.504 0,4.696 0,0C0,-4.696 -3.808,-8.504 -8.504,-8.504" style="fill:white;fill-rule:nonzero;"/>
            </g>
            <g transform="matrix(0,-1.33332,-1.33332,0,150.261,118.658)">
                <path d="M-8.504,-8.504C-13.201,-8.504 -17.008,-4.696 -17.008,0C-17.008,4.696 -13.201,8.504 -8.504,8.504C-3.808,8.504 0,4.696 0,0C0,-4.696 -3.808,-8.504 -8.504,-8.504" style="fill:white;fill-rule:nonzero;"/>
            </g>
            <g transform="matrix(0,-1.33332,-1.33332,0,25.5364,181.02)">
                <path d="M-8.504,-8.504C-13.201,-8.504 -17.008,-4.696 -17.008,0C-17.008,4.696 -13.201,8.504 -8.504,8.504C-3.807,8.504 0,4.696 0,0C0,-4.696 -3.807,-8.504 -8.504,-8.504" style="fill:white;fill-rule:nonzero;"/>
            </g>
            <g transform="matrix(0,-1.33332,-1.33332,0,87.8987,181.02)">
                <path d="M-8.504,-8.504C-13.201,-8.504 -17.008,-4.696 -17.008,0C-17.008,4.696 -13.201,8.504 -8.504,8.504C-3.807,8.504 0,4.696 0,0C0,-4.696 -3.807,-8.504 -8.504,-8.504" style="fill:white;fill-rule:nonzero;"/>
            </g>
            <g transform="matrix(0,-1.33332,-1.33332,0,150.261,181.02)">
                <path d="M-8.504,-8.504C-13.201,-8.504 -17.008,-4.696 -17.008,0C-17.008,4.696 -13.201,8.504 -8.504,8.504C-3.807,8.504 0,4.696 0,0C0,-4.696 -3.807,-8.504 -8.504,-8.504" style="fill:white;fill-rule:nonzero;"/>
            </g>
            <g transform="matrix(0,-1.33332,-1.33332,0,25.5364,243.382)">
                <path d="M-8.504,-8.504C-13.201,-8.504 -17.008,-4.696 -17.008,0C-17.008,4.696 -13.201,8.504 -8.504,8.504C-3.808,8.504 0,4.696 0,0C0,-4.696 -3.808,-8.504 -8.504,-8.504" style="fill:white;fill-rule:nonzero;"/>
            </g>
            <g transform="matrix(0,-1.33332,-1.33332,0,87.8987,243.382)">
                <path d="M-8.504,-8.504C-13.201,-8.504 -17.008,-4.696 -17.008,0C-17.008,4.696 -13.201,8.504 -8.504,8.504C-3.808,8.504 0,4.696 0,0C0,-4.696 -3.808,-8.504 -8.504,-8.504" style="fill:white;fill-rule:nonzero;"/>
            </g>
            <g transform="matrix(0,-1.33332,-1.33332,0,150.261,243.382)">
                <path d="M-8.504,-8.504C-13.201,-8.504 -17.008,-4.696 -17.008,0C-17.008,4.696 -13.201,8.504 -8.504,8.504C-3.808,8.504 0,4.696 0,0C0,-4.696 -3.808,-8.504 -8.504,-8.504" style="fill:white;fill-rule:nonzero;"/>
            </g>
            <g transform="matrix(0,-1.33332,-1.33332,0,150.261,305.744)">
                <path d="M-8.504,-8.504C-13.201,-8.504 -17.008,-4.696 -17.008,0C-17.008,4.696 -13.201,8.504 -8.504,8.504C-3.808,8.504 0,4.696 0,0C0,-4.696 -3.808,-8.504 -8.504,-8.504" style="fill:white;fill-rule:nonzero;"/>
            </g>
            <g transform="matrix(0,-1,-1,0,25.5359,31.4925)">
                <path d="M-4.961,-4.962C-7.701,-4.962 -9.922,-2.741 -9.922,-0.001C-9.922,2.738 -7.701,4.961 -4.961,4.961C-2.221,4.961 -0,2.738 -0,-0.001C-0,-2.741 -2.221,-4.962 -4.961,-4.962" style="fill:white;fill-rule:nonzero;"/>
            </g>
            <g transform="matrix(0,-1,-1,0,87.8982,31.4925)">
                <path d="M-4.961,-4.962C-7.701,-4.962 -9.922,-2.741 -9.922,-0.001C-9.922,2.738 -7.701,4.961 -4.961,4.961C-2.221,4.961 -0,2.738 -0,-0.001C-0,-2.741 -2.221,-4.962 -4.961,-4.962" style="fill:white;fill-rule:nonzero;"/>
            </g>
            <g transform="matrix(0,-1,-1,0,150.26,31.4925)">
                <path d="M-4.961,-4.962C-7.701,-4.962 -9.922,-2.74 -9.922,-0.001C-9.922,2.738 -7.701,4.961 -4.961,4.961C-2.221,4.961 -0,2.738 -0,-0.001C-0,-2.74 -2.221,-4.962 -4.961,-4.962" style="fill:white;fill-rule:nonzero;"/>
            </g>
            <g transform="matrix(0,-1,-1,0,25.5359,93.8548)">
                <path d="M-4.961,-4.962C-7.701,-4.962 -9.922,-2.741 -9.922,-0.001C-9.922,2.738 -7.701,4.961 -4.961,4.961C-2.22,4.961 -0,2.738 -0,-0.001C-0,-2.741 -2.22,-4.962 -4.961,-4.962" style="fill:white;fill-rule:nonzero;"/>
            </g>
            <g transform="matrix(0,-1,-1,0,87.8982,93.8548)">
                <path d="M-4.961,-4.962C-7.701,-4.962 -9.922,-2.741 -9.922,-0.001C-9.922,2.738 -7.701,4.961 -4.961,4.961C-2.22,4.961 -0,2.738 -0,-0.001C-0,-2.741 -2.22,-4.962 -4.961,-4.962" style="fill:white;fill-rule:nonzero;"/>
            </g>
            <g transform="matrix(0,-1,-1,0,150.26,93.8548)">
                <path d="M-4.961,-4.962C-7.701,-4.962 -9.922,-2.74 -9.922,-0.001C-9.922,2.738 -7.701,4.961 -4.961,4.961C-2.22,4.961 -0,2.738 -0,-0.001C-0,-2.74 -2.22,-4.962 -4.961,-4.962" style="fill:white;fill-rule:nonzero;"/>
            </g>
            <g transform="matrix(0,-1,-1,0,25.5364,156.217)">
                <path d="M-4.961,-4.961C-7.701,-4.961 -9.921,-2.74 -9.921,0C-9.921,2.739 -7.701,4.961 -4.961,4.961C-2.221,4.961 -0.001,2.739 -0.001,0C-0.001,-2.74 -2.221,-4.961 -4.961,-4.961" style="fill:white;fill-rule:nonzero;"/>
            </g>
            <g transform="matrix(0,-1,-1,0,87.8987,156.217)">
                <path d="M-4.961,-4.961C-7.701,-4.961 -9.921,-2.74 -9.921,0C-9.921,2.739 -7.701,4.961 -4.961,4.961C-2.221,4.961 -0.001,2.739 -0.001,0C-0.001,-2.74 -2.221,-4.961 -4.961,-4.961" style="fill:white;fill-rule:nonzero;"/>
            </g>
            <g transform="matrix(0,-1,-1,0,150.261,156.217)">
                <path d="M-4.961,-4.961C-7.701,-4.961 -9.921,-2.739 -9.921,0C-9.921,2.739 -7.701,4.961 -4.961,4.961C-2.221,4.961 -0.001,2.739 -0.001,0C-0.001,-2.739 -2.221,-4.961 -4.961,-4.961" style="fill:white;fill-rule:nonzero;"/>
            </g>
            <g transform="matrix(0,-1,-1,0,25.5364,218.579)">
                <path d="M-4.961,-4.961C-7.7,-4.961 -9.922,-2.74 -9.922,0C-9.922,2.739 -7.7,4.961 -4.961,4.961C-2.221,4.961 0,2.739 0,0C0,-2.74 -2.221,-4.961 -4.961,-4.961" style="fill:white;fill-rule:nonzero;"/>
            </g>
            <g transform="matrix(0,-1,-1,0,87.8987,218.579)">
                <path d="M-4.961,-4.961C-7.7,-4.961 -9.922,-2.74 -9.922,0C-9.922,2.739 -7.7,4.961 -4.961,4.961C-2.221,4.961 0,2.739 0,0C0,-2.74 -2.221,-4.961 -4.961,-4.961" style="fill:white;fill-rule:nonzero;"/>
            </g>
            <g transform="matrix(0,-1,-1,0,150.261,218.579)">
                <path d="M-4.961,-4.961C-7.7,-4.961 -9.922,-2.739 -9.922,0C-9.922,2.739 -7.7,4.961 -4.961,4.961C-2.221,4.961 0,2.739 0,0C0,-2.739 -2.221,-4.961 -4.961,-4.961" style="fill:white;fill-rule:nonzero;"/>
            </g>
        </g>
    </g>
</svg>
